# xmcd
#
# Track frame offsets: 
#        150
#        22272
#        50806
#        74267
#        92587
#        117758
#        142058
#        167553
#        193402
#        215500
#
# Disc length: 3275 seconds
#
# Revision: 0
# Processed by: cddbd v1.5.2PL0 Copyright (c) Steve Scherf et al.
# Submitted via: ExactAudioCopy v1.2
#
DISCID=9b0cc90a
DTITLE=Joe Baby - No Part Time Love
DYEAR=2018
DGENRE=Blues
TTITLE0=Talk with My Pillow
TTITLE1=Rain Drops
TTITLE2=Every Time the Phone Rings
TTITLE3=Love Cares Nothing About Me
TTITLE4=No Part Time Love
TTITLE5=So Many Times
TTITLE6=Prisoner of Love
TTITLE7=I Need Love to Stay Here
TTITLE8=Wipe Your Tears Away
TTITLE9=I Know
EXTD=
EXTT0=
EXTT1=
EXTT2=
EXTT3=
EXTT4=
EXTT5=
EXTT6=
EXTT7=
EXTT8=
EXTT9=
PLAYORDER=
